<svg width="128" height="128" viewBox="0 0 128 128" fill="none" xmlns="http://www.w3.org/2000/svg">
  <defs>
    <linearGradient id="bg" x1="12" y1="8" x2="118" y2="124" gradientUnits="userSpaceOnUse">
      <stop stop-color="#0C446F" />
      <stop offset="1" stop-color="#0E7665" />
    </linearGradient>
    <radialGradient id="aura" cx="0" cy="0" r="1" gradientUnits="userSpaceOnUse" gradientTransform="translate(90 22) rotate(128) scale(88)">
      <stop stop-color="#A3F5FF" stop-opacity="0.3" />
      <stop offset="1" stop-color="#A3F5FF" stop-opacity="0" />
    </radialGradient>
    <linearGradient id="lamp" x1="34" y1="66" x2="97" y2="97" gradientUnits="userSpaceOnUse">
      <stop stop-color="#FFD08A" />
      <stop offset="1" stop-color="#E7A04A" />
    </linearGradient>
  </defs>

  <rect x="4" y="4" width="120" height="120" rx="28" fill="url(#bg)" />
  <rect x="4" y="4" width="120" height="120" rx="28" fill="url(#aura)" />

  <path
    d="M80 34C74 28 60 28 54 34C48 40 51 48 59 51L71 55C78 57 80 64 74 69C68 75 55 75 48 70"
    stroke="#EAFBFF"
    stroke-width="9"
    stroke-linecap="round"
    stroke-linejoin="round"
  />

  <path
    d="M36 82C36 73 46 67 61 67H73C87 67 97 73 97 82C97 90 87 96 73 96H61C46 96 36 90 36 82Z"
    fill="url(#lamp)"
  />

  <path
    d="M78 74C86 70 95 70 103 74L95 80C90 84 85 86 79 86"
    fill="#E4A258"
  />

  <path
    d="M45 89H85"
    stroke="#CB8437"
    stroke-width="4"
    stroke-linecap="round"
  />

  <path
    d="M93 32L95 37L100 39L95 41L93 46L91 41L86 39L91 37L93 32Z"
    fill="#FFE8A9"
  />
</svg>
